<?xml version="1.0" encoding="UTF-8" standalone="no"?>
<!-- Created with Inkscape (http://www.inkscape.org/) -->

<svg
   width="1024"
   height="1024"
   viewBox="0 0 270.93333 270.93333"
   version="1.1"
   id="svg1"
   inkscape:version="1.3.2 (091e20e, 2023-11-25)"
   sodipodi:docname="icon.svg"
   xmlns:inkscape="http://www.inkscape.org/namespaces/inkscape"
   xmlns:sodipodi="http://sodipodi.sourceforge.net/DTD/sodipodi-0.dtd"
   xmlns="http://www.w3.org/2000/svg"
   xmlns:svg="http://www.w3.org/2000/svg">
  <sodipodi:namedview
     id="namedview1"
     pagecolor="#505050"
     bordercolor="#eeeeee"
     borderopacity="1"
     inkscape:showpageshadow="0"
     inkscape:pageopacity="0"
     inkscape:pagecheckerboard="0"
     inkscape:deskcolor="#505050"
     inkscape:document-units="mm"
     inkscape:zoom="0.59519888"
     inkscape:cx="661.12356"
     inkscape:cy="488.07216"
     inkscape:window-width="1280"
     inkscape:window-height="800"
     inkscape:window-x="0"
     inkscape:window-y="0"
     inkscape:window-maximized="0"
     inkscape:current-layer="layer1" />
  <defs
     id="defs1">
    <inkscape:path-effect
       effect="fillet_chamfer"
       id="path-effect8"
       is_visible="true"
       lpeversion="1"
       nodesatellites_param="F,0,0,1,0,0,0,1 @ F,0,0,1,0,0,0,1 @ F,0,0,1,0,0,0,1 @ F,0,0,1,0,0,0,1 @ F,0,0,1,0,0,0,1 @ F,0,0,1,0,0,0,1 @ F,0,0,1,0,0,0,1 @ F,0,0,1,0,0,0,1 @ F,0,0,1,0,0,0,1 @ F,0,0,1,0,0,0,1 @ F,0,0,1,0,0,0,1 | F,0,0,1,0,0,0,1 @ F,0,0,1,0,0,0,1 @ F,0,0,1,0,0,0,1 @ F,0,0,1,0,0,0,1 @ F,0,0,1,0,0,0,1 @ F,0,0,1,0,0,0,1 @ F,0,0,1,0,0,0,1 @ F,0,0,1,0,0,0,1 @ F,0,0,1,0,0,0,1 @ F,0,0,1,0,0,0,1 @ F,0,0,1,0,0,0,1 @ F,0,0,1,0,0,0,1 @ F,0,0,1,0,0,0,1 @ F,0,0,1,0,0,0,1 @ F,0,0,1,0,0,0,1 @ F,0,0,1,0,0,0,1 @ F,0,0,1,0,0,0,1 @ F,0,0,1,0,0,0,1 @ F,0,0,1,0,0,0,1 @ F,0,0,1,0,0,0,1 @ F,0,0,1,0,0,0,1 @ F,0,0,1,0,0,0,1 @ F,0,0,1,0,0,0,1 @ F,0,0,1,0,0,0,1"
       radius="13"
       unit="px"
       method="auto"
       mode="F"
       chamfer_steps="1"
       flexible="false"
       use_knot_distance="true"
       apply_no_radius="true"
       apply_with_radius="true"
       only_selected="true"
       hide_knots="false" />
    <inkscape:path-effect
       effect="fillet_chamfer"
       id="path-effect2"
       is_visible="true"
       lpeversion="1"
       nodesatellites_param="F,0,0,1,0,0,0,1 @ F,0,0,1,0,0,0,1 @ F,0,1,1,0,6.8791667,0,1 @ F,0,1,1,0,6.8791667,0,1 @ F,0,1,1,0,6.8791667,0,1 @ F,0,1,1,0,6.8791667,0,1 @ F,0,0,1,0,0,0,1"
       radius="26"
       unit="px"
       method="auto"
       mode="F"
       chamfer_steps="1"
       flexible="false"
       use_knot_distance="true"
       apply_no_radius="true"
       apply_with_radius="true"
       only_selected="true"
       hide_knots="false" />
  </defs>
  <g
     inkscape:label="图层 1"
     inkscape:groupmode="layer"
     id="layer1">
    <path
       id="path1"
       style="fill:#0f6e6e;fill-opacity:1;stroke-width:0.771631"
       d="M 135.46663,0 C 83.075925,-5.5329125e-5 40.604714,42.471102 40.604757,94.861888 c 0.0768,24.933202 9.954133,48.645112 27.190101,66.188472 5.04768,5.1377 11.14176,14.3292 12.849451,21.33206 l 9.977771,40.91803 c 1.81495,7.44266 8.48294,12.67994 16.1437,12.67984 h 57.40182 c 7.66075,8e-5 14.32871,-5.23719 16.14366,-12.67984 l 9.97777,-40.91803 c 1.70769,-7.00286 7.80275,-16.19439 12.85043,-21.33206 C 220.37547,143.507 230.25221,119.79511 230.32858,94.861888 230.32866,42.471123 187.85741,-5.3228346e-5 135.46663,0 Z m 2.09621,33.951055 c 7.71034,0 14.00145,7.094631 14.10637,15.906404 l 0.5841,49.080056 17.80058,-7.183565 c 0.52949,-0.21376 1.06325,-0.383573 1.59915,-0.530389 l 13.06218,-21.062469 c 3.42358,-5.520734 10.54166,-7.079616 15.95934,-3.49521 l 1.8991,1.255893 c 5.41772,3.584427 7.02374,10.91511 3.60021,16.435848 l -15.15051,24.430207 c -1.54282,2.48802 -3.52325,4.47841 -6.07296,5.24897 -1.33291,1.33768 -3.2663,2.12801 -5.13625,2.8827 l -27.21558,10.98369 0.48811,40.99058 c 0.10667,8.81176 -6.01856,15.90639 -13.72885,15.90639 -7.71034,0 -14.00145,-7.09463 -14.10637,-15.90639 l -0.22613,-19.05457 c -1.5808,-0.62899 -2.82245,-1.9424 -4.31711,-2.98095 L 85.344469,122.99028 c -7.918592,-5.50245 -10.832597,-14.62662 -6.533547,-20.45754 4.299051,-5.830912 14.13504,-6.095616 22.053678,-0.59316 l 23.78598,16.52897 -0.81664,-68.611091 c -0.10666,-8.811773 6.01856,-15.906404 13.72886,-15.906404 z"
       sodipodi:nodetypes="ccsccccccsccscccccccccccccsccccscccss"
       inkscape:path-effect="#path-effect8"
       inkscape:original-d="M 135.46663,0 C 83.075925,-5.5329125e-5 40.604714,42.471102 40.604757,94.861888 c 0.0768,24.933202 9.954133,48.645112 27.190101,66.188472 5.04768,5.1377 11.14176,14.3292 12.849451,21.33206 l 9.977771,40.91803 c 1.81495,7.44266 8.48294,12.67994 16.1437,12.67984 h 57.40182 c 7.66075,8e-5 14.32871,-5.23719 16.14366,-12.67984 l 9.97777,-40.91803 c 1.70769,-7.00286 7.80275,-16.19439 12.85043,-21.33206 C 220.37547,143.507 230.25221,119.79511 230.32858,94.861888 230.32866,42.471123 187.85741,-5.3228346e-5 135.46663,0 Z m 2.09621,33.951055 c 7.71034,0 14.00145,7.094631 14.10637,15.906404 l 0.5841,49.080056 17.80058,-7.183565 c 0.52949,-0.21376 1.06325,-0.383573 1.59915,-0.530389 l 13.06218,-21.062469 c 3.42358,-5.520734 10.54166,-7.079616 15.95934,-3.49521 l 1.8991,1.255893 c 5.41772,3.584427 7.02374,10.91511 3.60021,16.435848 l -15.15051,24.430207 c -1.54282,2.48802 -3.52325,4.47841 -6.07296,5.24897 -1.33291,1.33768 -3.2663,2.12801 -5.13625,2.8827 l -27.21558,10.98369 0.48811,40.99058 c 0.10667,8.81176 -6.01856,15.90639 -13.72885,15.90639 -7.71034,0 -14.00145,-7.09463 -14.10637,-15.90639 l -0.22613,-19.05457 c -1.5808,-0.62899 -2.82245,-1.9424 -4.31711,-2.98095 L 85.344469,122.99028 c -7.918592,-5.50245 -10.832597,-14.62662 -6.533547,-20.45754 4.299051,-5.830912 14.13504,-6.095616 22.053678,-0.59316 l 23.78598,16.52897 -0.81664,-68.611091 c -0.10666,-8.811773 6.01856,-15.906404 13.72886,-15.906404 z" />
    <path
       id="path2"
       style="fill:#0f6e6e;stroke-width:0.43741;fill-opacity:1"
       d="m 99.338068,244.4295 a 37.944748,37.944748 0 0 0 36.128562,26.50383 37.944748,37.944748 0 0 0 36.12864,-26.50383 z" />
  </g>
</svg>
